<svg width="100" height="100" viewBox="0 0 100 100" version="1.1" xmlns="http://www.w3.org/2000/svg" xmlns:xlink="http://www.w3.org/1999/xlink"><g id="mittens" stroke="none" stroke-width="1" fill="none" fill-rule="evenodd"><g><path d="M76.1223207,15.2479302 C76.1223207,15.2479302 95.9072522,0.641859802 96.4525383,3.33030998 C100.090492,21.2379382 89.4424926,32.8517174 89.4424926,32.8517174 L76.1223207,15.2479302" id="Fill-275" fill="#545454" fill-rule="evenodd"/><path d="M77.2373086,16.9407585 C77.2373086,16.9407585 90.1532635,7.22327264 90.9834005,8.88354661 C94.3256514,15.5599098 86.2440236,28.8448144 86.2440236,28.8448144 L77.2373086,16.9407585" id="Fill-276" fill="#F08B88" fill-rule="evenodd"/><path d="M23.4438893,15.2479302 C23.4438893,15.2479302 3.6616707,0.641859802 3.11367177,3.33030998 C-0.521568627,21.2379382 10.1237174,32.8517174 10.1237174,32.8517174 L23.4438893,15.2479302" id="Fill-277" fill="#545454" fill-rule="evenodd"/><path d="M22.3289014,16.9407585 C22.3289014,16.9407585 9.41294655,7.22327264 8.58280956,8.88354661 C5.24055869,15.5599098 13.3221864,28.8448144 13.3221864,28.8448144 L22.3289014,16.9407585" id="Fill-278" fill="#F08B88" fill-rule="evenodd"/><path d="M99.0813054,51.0333452 C99.0813054,64.5542691 93.281198,75.8153758 83.9679291,83.563321 C75.1484018,90.931465 63.18195,96.4304443 50.0136986,96.4304443 C22.904029,96.4304443 0.943378995,77.3454322 0.943378995,51.0333452 C0.943378995,24.8514757 22.681574,7.1228966 49.5932044,6.95198604 L50.0136986,6.94113458 C77.1070911,6.94113458 99.0813054,24.7212581 99.0813054,51.0333452" id="Fill-279" fill="#545454" fill-rule="evenodd"/><path d="M51.5410422,38.7196465 C51.3402901,42.2409466 50.9659146,46.299394 55.0270749,47.8321633 C57.2706151,48.6812904 60.0187483,47.9488166 61.5406661,46.0932162 M51.3185872,38.7196465 C51.5193392,42.2409466 51.8937147,46.299394 47.8325544,47.8321633 C45.5890142,48.6812904 42.840881,47.9488166 41.3189632,46.0932162" id="Stroke-280" stroke="#FFF" stroke-width=".424" stroke-linecap="round"/><path d="M56.1529143,35.998642 L51.4460919,39.8075058 L46.706715,35.9715133 C45.9009938,35.2254752 46.1532904,33.8690422 47.192318,33.5109439 C48.2177814,33.1582713 49.6366103,32.8517174 51.4705077,32.8517174 C53.2013161,32.8517174 54.6174322,33.1745485 55.6618856,33.5353597 C56.7036261,33.8961708 56.9613484,35.249891 56.1529143,35.998642" id="Fill-281" fill="#F08B88" fill-rule="evenodd"/><path d="M79.6707494,27.49652 C79.6707494,27.49652 78.444534,32.0541348 72.0150416,32.0541348 C65.6262423,32.0541348 64.3457695,27.49652 64.3457695,27.49652 C64.3457695,27.49652 66.7629331,24.2031007 70.0292237,23.145083 C70.6694601,22.922628 71.3368251,22.8059748 72.0150416,22.8059748 C74.0279882,22.8059748 75.8564598,23.8775568 77.22917,25.0006833 C78.7320978,26.2160473 79.6707494,27.49652 79.6707494,27.49652" id="Fill-282" fill="#FFF" fill-rule="evenodd"/><path d="M77.2427344,25.1173366 C77.2427344,27.2605007 75.5037873,28.9967349 73.3606232,28.9967349 C71.217459,28.9967349 69.4812248,27.2605007 69.4812248,25.1173366 C69.4812248,24.3984271 69.6765512,23.7202106 70.0292237,23.145083 C70.6694601,22.922628 71.3368251,22.8059748 72.0150416,22.8059748 C74.0279882,22.8059748 75.8564598,23.8775568 77.22917,25.0006833 L77.2427344,25.1173366" id="Fill-283" fill="#353535" fill-rule="evenodd"/><path d="M71.1740532,27.5996089 C71.1740532,28.266974 70.6341929,28.8068343 69.9695407,28.8068343 C69.3021757,28.8068343 68.7623153,28.266974 68.7623153,27.5996089 C68.7623153,26.9349568 69.3021757,26.3923836 69.9695407,26.3923836 C70.6341929,26.3923836 71.1740532,26.9349568 71.1740532,27.5996089" id="Fill-284" fill="#FFF" fill-rule="evenodd"/><path d="M36.728794,27.49652 C36.728794,27.49652 35.4998657,32.0541348 29.0595219,32.0541348 C22.6842869,32.0541348 21.4038141,27.49652 21.4038141,27.49652 C21.4038141,27.49652 23.8074134,24.2031007 27.073704,23.145083 C27.700376,22.9361923 28.3677411,22.8059748 29.0595219,22.8059748 C31.0724684,22.8059748 32.9009401,23.8639925 34.2736503,24.987119 C35.7874295,26.202483 36.728794,27.49652 36.728794,27.49652" id="Fill-285" fill="#FFF" fill-rule="evenodd"/><path d="M34.2845017,25.1173366 C34.2845017,27.2605007 32.5482675,28.9967349 30.4051034,28.9967349 C28.2619393,28.9967349 26.5257051,27.2605007 26.5257051,25.1173366 C26.5257051,24.3984271 26.7210314,23.7202106 27.073704,23.145083 C27.700376,22.9361923 28.3677411,22.8059748 29.0595219,22.8059748 C31.0724684,22.8059748 32.9009401,23.8639925 34.2736503,24.987119 L34.2845017,25.1173366" id="Fill-286" fill="#353535" fill-rule="evenodd"/><path d="M28.2239592,27.5996089 C28.2239592,28.266974 27.6840988,28.8068343 27.0194467,28.8068343 C26.3520817,28.8068343 25.8122213,28.266974 25.8122213,27.5996089 C25.8122213,26.9349568 26.3520817,26.3923836 27.0194467,26.3923836 C27.6840988,26.3923836 28.2239592,26.9349568 28.2239592,27.5996089" id="Fill-287" fill="#FFF" fill-rule="evenodd"/><path d="M67.5252485,83.9539737 C66.9257051,83.9539737 66.6110126,83.4249648 67.5415257,83.1808069 C67.6771689,83.1455396 67.8046737,83.1292624 67.9213269,83.1292624 C68.4096428,83.1292624 68.6646522,83.4195391 68.1790492,83.7477959 C67.9538813,83.8942906 67.7232877,83.9539737 67.5252485,83.9539737" id="Fill-288" fill="#7D7D7D" fill-rule="evenodd"/><path d="M63.6756916,88.7150535 C63.4369594,88.7150535 63.2334945,88.622816 63.1765243,88.4247768 C63.0056138,87.8387978 63.6621273,87.2012743 64.1612947,87.2012743 C64.4108783,87.2012743 64.6224819,87.3640462 64.6686006,87.773689 C64.7445608,88.3678066 64.1423046,88.7150535 63.6756916,88.7150535" id="Fill-289" fill="#7D7D7D" fill-rule="evenodd"/><path d="M77.4055063,86.6749783 C77.2400215,86.6749783 77.1016653,86.6180081 77.0311308,86.4932162 C76.7110126,85.9126629 77.3403975,85.0798131 77.8666935,85.0798131 C78.0755842,85.0798131 78.2654848,85.2100306 78.3794252,85.5382874 C78.6045931,86.1730981 77.8938222,86.6749783 77.4055063,86.6749783" id="Fill-290" fill="#7D7D7D" fill-rule="evenodd"/><path d="M69.8962933,90.3753274 C69.6168681,90.3753274 69.3808488,90.2776643 69.2940371,90.060635 C68.9847703,89.2766167 69.8800161,88.3271136 70.5745098,88.3271136 C70.8837765,88.3271136 71.1550631,88.5197271 71.258152,89.0053301 C71.4480526,89.8327542 70.550094,90.3753274 69.8962933,90.3753274" id="Fill-291" fill="#7D7D7D" fill-rule="evenodd"/><path d="M63.1656728,83.2106484 C63.0924255,83.2106484 63.0273167,83.1808069 63.0083266,83.1129852 C62.9486436,82.9122332 63.1521085,82.6979167 63.3094547,82.6979167 C63.3908407,82.6979167 63.4559495,82.7521741 63.4722267,82.8932431 C63.4966425,83.096708 63.3121676,83.2106484 63.1656728,83.2106484" id="Fill-292" fill="#7D7D7D" fill-rule="evenodd"/><path d="M74.1690572,82.7928671 C73.930325,82.7928671 73.7539887,82.592115 73.7132957,82.3913629 C73.6753156,82.1906108 73.7702659,81.9898587 74.0768198,81.9898587 C74.1446414,81.9898587 74.2260274,81.9979973 74.315552,82.0224131 C74.6817889,82.1119377 74.9747784,82.3832243 74.4376309,82.7114811 C74.3426806,82.7684513 74.2531561,82.7928671 74.1690572,82.7928671" id="Fill-293" fill="#7D7D7D" fill-rule="evenodd"/><path d="M70.2408273,80.4109707 C70.0861939,80.4109707 69.9722536,80.2699017 69.9396992,80.1288327 C69.9071448,79.9877636 69.9586892,79.8466946 70.1377384,79.8466946 C70.1892828,79.8466946 70.2516788,79.8602589 70.327639,79.8873876 C70.5582326,79.9714864 70.7399946,80.1803771 70.3900349,80.3702777 C70.3357776,80.4001193 70.286946,80.4109707 70.2408273,80.4109707" id="Fill-294" fill="#7D7D7D" fill-rule="evenodd"/><path d="M70.5582326,85.8584056 C69.9939565,85.8584056 69.6467096,84.8654967 70.6993016,84.8085265 C70.7210046,84.8085265 70.7427075,84.8085265 70.7616976,84.8085265 C71.1957561,84.8085265 71.5565673,85.0526844 71.0112812,85.6359506 C70.8593607,85.7960097 70.7020145,85.8584056 70.5582326,85.8584056" id="Fill-295" fill="#7D7D7D" fill-rule="evenodd"/><polyline id="Fill-296" fill="#7D7D7D" fill-rule="evenodd" points="78.808058 80.6985345 78.4960784 80.4706538 78.4228311 80.2726146 78.5991673 80.223783 78.8460381 80.305169 78.9626914 80.4353865 78.808058 80.6985345"/><path d="M64.2019876,80.5194854 C64.1178888,80.5194854 64.0310771,80.4977824 63.9659683,80.4787924 L63.8059092,80.3485748 L63.8737309,80.082714 L64.0717701,79.9090905 L64.3620467,79.9307935 L64.4244427,80.0447338 L64.4597099,80.3160204 C64.438007,80.4760795 64.3240666,80.5194854 64.2019876,80.5194854" id="Fill-297" fill="#7D7D7D" fill-rule="evenodd"/><path d="M64.8747784,92.4669471 L64.2481064,92.3150266 C64.093473,92.1197003 64.134166,91.8267107 64.1965619,91.5825528 L64.3539081,91.2027516 C64.49769,91.0155638 64.6957293,90.950455 64.9073328,90.950455 C65.1677679,90.950455 65.4471931,91.0508311 65.6669353,91.15392 C65.9002417,91.2651475 66.0657266,91.5011668 65.9680634,91.7697405 L65.4526189,92.2336406 L64.8747784,92.4669471" id="Fill-298" fill="#7D7D7D" fill-rule="evenodd"/><path d="M51.9045662,85.0472587 C51.5193392,85.0472587 51.2344883,84.8519323 51.1693795,84.656606 C51.1042707,84.4612796 51.261617,84.2659533 51.7634972,84.2659533 C51.7852001,84.2659533 51.806903,84.2686661 51.8313188,84.2686661 C52.5420897,84.2903691 52.940881,84.7759721 52.2680902,84.9930014 C52.1405855,85.0309815 52.0185066,85.0472587 51.9045662,85.0472587" id="Fill-299" fill="#7D7D7D" fill-rule="evenodd"/><path d="M58.4724147,93.8423701 C57.4822186,93.8423701 56.3373892,92.8901542 57.2760408,92.1875219 C57.4876444,92.0247499 57.758931,91.9542154 58.0356433,91.9542154 C58.8332259,91.9542154 59.701343,92.529343 59.5114424,93.1397379 C59.337819,93.6470438 58.9200376,93.8423701 58.4724147,93.8423701" id="Fill-300" fill="#7D7D7D" fill-rule="evenodd"/><path d="M46.9481601,88.4871727 C46.5792103,88.4871727 46.2401021,88.3108364 46.2482407,88.0178469 C46.261805,87.4915509 46.8613484,87.1090368 47.3225356,87.1090368 C47.6643567,87.1090368 47.9329304,87.3179275 47.8352673,87.833372 C47.7565941,88.2918464 47.3360999,88.4871727 46.9481601,88.4871727" id="Fill-301" fill="#7D7D7D" fill-rule="evenodd"/><path d="M60.4229654,90.4024561 C60.1543916,90.4024561 59.9210851,90.3020801 59.8722536,90.0931894 C59.7393231,89.5099232 60.3958367,88.9429342 60.8922912,88.9429342 C61.1662906,88.9429342 61.3914585,89.1111319 61.4158743,89.5424776 C61.4538544,90.1094666 60.8841526,90.4024561 60.4229654,90.4024561" id="Fill-302" fill="#7D7D7D" fill-rule="evenodd"/><path d="M49.4955412,95.7386635 C48.9665324,95.7386635 48.1960784,95.6382874 48.163524,95.1092786 C48.1092667,94.3333989 49.3246307,94.1028053 49.8536395,94.067538 C49.905184,94.067538 49.9567284,94.0648252 50.0082729,94.0648252 C50.3256782,94.0648252 50.6892023,94.1136567 50.9306473,94.3198346 C51.2019339,94.553141 51.4596562,95.1581101 51.2019339,95.4755155 L50.5508461,95.7386635 L49.8265109,95.7250991 C49.7396992,95.7332377 49.6257588,95.7386635 49.4955412,95.7386635" id="Fill-303" fill="#7D7D7D" fill-rule="evenodd"/><path d="M52.4227236,91.8918195 C51.969675,91.8918195 51.5627451,91.7019189 51.5329036,91.3573849 C51.4732205,90.6249111 52.3250604,90.0280806 52.9788611,90.0280806 C53.4020682,90.0280806 53.7411765,90.2776643 53.6923449,90.9070492 C53.648939,91.5852657 52.9978512,91.8918195 52.4227236,91.8918195" id="Fill-304" fill="#7D7D7D" fill-rule="evenodd"/><path d="M47.8678216,83.0478765 C47.7565941,83.0478765 47.658931,82.9909063 47.6616438,82.895956 C47.6670696,82.7114811 47.8596831,82.5758378 48.0034649,82.5758378 C48.1065539,82.5758378 48.1879398,82.6463723 48.1526726,82.8199957 C48.1228311,82.9800548 47.9871878,83.0478765 47.8678216,83.0478765" id="Fill-305" fill="#7D7D7D" fill-rule="evenodd"/><path d="M58.2743755,85.7661682 C58.0166532,85.7661682 57.8620199,85.5572775 57.8348912,85.3483868 C57.8050497,85.1394961 57.9,84.9306054 58.1360193,84.9306054 C58.2336825,84.9306054 58.3530486,84.9658727 58.4968305,85.0499715 C58.8169487,85.2371593 59.0231265,85.5816933 58.426296,85.7444652 C58.3720387,85.7607424 58.3232071,85.7661682 58.2743755,85.7661682" id="Fill-306" fill="#7D7D7D" fill-rule="evenodd"/><path d="M54.8670158,80.0338824 C54.6988182,80.0338824 54.6065807,79.8873876 54.5903035,79.73818 C54.5740263,79.5889723 54.6364222,79.4397647 54.7747784,79.4397647 C54.8371743,79.4397647 54.9158474,79.4723191 55.0107977,79.5455665 C55.2006984,79.6893484 55.3119259,79.9416449 54.9375504,80.0257438 C54.9131346,80.0311695 54.8887188,80.0338824 54.8670158,80.0338824" id="Fill-307" fill="#7D7D7D" fill-rule="evenodd"/><path d="M54.0450175,87.7112931 C53.7493151,87.7112931 53.5567016,87.4535708 53.5377115,87.1985614 C53.5160086,86.943552 53.6679291,86.6858297 54.0558689,86.6858297 C54.1372549,86.6858297 54.2294923,86.699394 54.3325813,86.7238098 C54.7693527,86.8296116 55.1030352,87.1768585 54.39769,87.6027784 C54.2674725,87.6787387 54.1508192,87.7112931 54.0450175,87.7112931" id="Fill-308" fill="#7D7D7D" fill-rule="evenodd"/><polyline id="Fill-309" fill="#7D7D7D" fill-rule="evenodd" points="60.6834005 76.2521472 60.4528069 75.9455934 60.4365297 75.7339898 60.6155788 75.7367027 60.8244695 75.8831974 60.9004298 76.0405437 60.6834005 76.2521472"/><path d="M49.8210851,79.9931894 C49.7125705,79.9931894 49.5932044,79.919942 49.5172442,79.8683975 L49.4087295,79.6947741 L49.5470857,79.4614676 L49.7749664,79.352953 L50.0354016,79.4587548 L50.0598174,79.5862595 L50.0164115,79.8548332 C49.9675799,79.9552093 49.8970454,79.9931894 49.8210851,79.9931894" id="Fill-310" fill="#7D7D7D" fill-rule="evenodd"/><path d="M46.6497448,92.3774225 L46.099033,92.0491657 L46.2699436,91.3329691 L46.5303787,91.0182767 C46.647032,90.9341778 46.7718238,90.8989106 46.8939028,90.8989106 C47.2221595,90.8989106 47.5504163,91.1430685 47.7837228,91.3573849 L47.8868117,92.0328885 L47.2655654,92.3231652 L46.6497448,92.3774225" id="Fill-311" fill="#7D7D7D" fill-rule="evenodd"/><path d="M37.2388128,81.4147311 C37.2333871,81.4147311 37.2279613,81.4147311 37.2225356,81.4147311 C36.3408541,81.3903153 36.0180231,80.5004953 36.6392694,80.5004953 C36.747784,80.5004953 36.8861402,80.527624 37.0570508,80.5927328 C37.7,80.8341778 37.9116035,81.4147311 37.2388128,81.4147311" id="Fill-312" fill="#7D7D7D" fill-rule="evenodd"/><path d="M37.7488316,93.7582713 C36.8590115,93.7501327 35.95834,93.5276777 35.3370937,92.8467483 C34.7945205,92.2444921 34.723986,91.4740382 35.7033306,91.4713253 C36.343567,91.4740382 37.0000806,91.7534633 37.4911093,92.1631061 C37.7732474,92.4045512 38.5626914,93.2482525 38.0608112,93.6768853 L37.7488316,93.7582713" id="Fill-313" fill="#7D7D7D" fill-rule="evenodd"/><path d="M40.5810637,91.8185721 C39.5094816,91.8185721 38.3131077,90.2288327 39.5773033,89.8083384 C39.6912436,89.7676455 39.8106097,89.7486554 39.9326887,89.7486554 C40.8360731,89.7486554 41.8154177,90.7849702 41.3813591,91.4035036 C41.1589041,91.699206 40.8740532,91.8185721 40.5810637,91.8185721" id="Fill-314" fill="#7D7D7D" fill-rule="evenodd"/><path d="M31.4739726,83.0533022 C30.980231,83.0533022 30.4756379,82.6870653 30.6194198,82.3181155 C30.7632017,81.9464529 31.1945474,81.761978 31.5852001,81.761978 C32.0843674,81.761978 32.5102874,82.065819 32.1630406,82.6680752 C32.0056943,82.9447875 31.7398335,83.0533022 31.4739726,83.0533022" id="Fill-315" fill="#7D7D7D" fill-rule="evenodd"/><path d="M43.4349987,89.1328348 C43.0280688,89.1328348 42.6347032,88.9212313 42.659119,88.6173903 C42.7079506,88.1155101 43.2695138,87.792679 43.7225624,87.792679 C44.1023637,87.792679 44.4062047,88.0205598 44.2651356,88.5577072 C44.1647596,88.96735 43.7958098,89.1328348 43.4349987,89.1328348" id="Fill-316" fill="#7D7D7D" fill-rule="evenodd"/><path d="M28.530513,90.9260392 L27.8522965,90.6710298 C27.4290894,90.5598023 26.3032501,90.1745754 26.4850121,89.5370519 C26.6043782,89.108419 27.0547139,88.9863401 27.5131883,88.9863401 C27.8577223,88.9863401 28.207682,89.0568746 28.4274241,89.1192705 C28.7583938,89.2196465 29.1707494,89.3905571 29.3579371,89.7106753 C29.5342734,90.0226549 29.5803922,90.6764556 29.2331453,90.890772 L28.530513,90.9260392" id="Fill-317" fill="#7D7D7D" fill-rule="evenodd"/><path d="M35.6327961,88.0721042 C34.9952726,88.0721042 34.3387591,87.6597486 34.4554123,87.1931357 C34.6019071,86.6342853 35.2475692,86.33587 35.8118453,86.33587 C36.4330916,86.33587 36.9566747,86.6939683 36.6257051,87.4589965 C36.4466559,87.9011937 36.0424389,88.0721042 35.6327961,88.0721042" id="Fill-318" fill="#7D7D7D" fill-rule="evenodd"/><path d="M33.8965619,78.1864206 C33.7473543,78.1864206 33.6089981,78.0751931 33.652404,77.9612528 C33.7066613,77.8256095 33.8558689,77.755075 33.9833736,77.755075 C34.1325813,77.755075 34.2492345,77.8500253 34.1352941,78.0480645 C34.0756111,78.1484405 33.9833736,78.1864206 33.8965619,78.1864206" id="Fill-319" fill="#7D7D7D" fill-rule="evenodd"/><path d="M42.7160892,84.0434983 C42.699812,84.0434983 42.6808219,84.0434983 42.6645447,84.0407854 C42.0568627,84.0163696 42.1572388,83.1618168 42.5533172,83.1618168 C42.6618319,83.1618168 42.7974752,83.2296385 42.9439699,83.400549 C43.1718507,83.6691228 43.2586624,84.0434983 42.7160892,84.0434983" id="Fill-320" fill="#7D7D7D" fill-rule="evenodd"/><path d="M41.6146656,75.0232189 C41.5956755,75.0232189 41.5739726,75.0205061 41.5522697,75.0177932 C41.1860328,74.9825259 41.3053989,74.4073983 41.5414182,74.4073983 C41.6119527,74.4073983 41.6933387,74.4562299 41.7747247,74.5864475 C41.8940908,74.7709224 41.9185066,75.0232189 41.6146656,75.0232189" id="Fill-321" fill="#7D7D7D" fill-rule="evenodd"/><path d="M38.1720387,84.57522 C37.8275047,84.57522 37.6647327,84.3174977 37.6620199,84.0597755 C37.659307,83.8020532 37.8166532,83.5443309 38.1177814,83.5443309 C38.2425732,83.5443309 38.3972066,83.5904496 38.57083,83.70439 C38.9424926,83.9431222 39.1405318,84.3771808 38.348375,84.5562299 C38.285979,84.5697943 38.226296,84.57522 38.1720387,84.57522" id="Fill-322" fill="#7D7D7D" fill-rule="evenodd"/><polyline id="Fill-323" fill="#7D7D7D" fill-rule="evenodd" points="46.0040827 79.9497835 45.8901424 79.5889723 45.9362611 79.3855074 46.0963202 79.4397647 46.2401021 79.6405168 46.261805 79.8141402 46.0040827 79.9497835"/><polyline id="Fill-324" fill="#7D7D7D" fill-rule="evenodd" points="36.3869729 76.5261467 35.9230728 76.3796519 35.8823798 76.1843256 36.0885576 76.0052764 36.3354284 75.9781477 36.5388934 76.1599098 36.5199033 76.2874145 36.3869729 76.5261467"/><path d="M30.1311039,86.7129584 L29.5369863,86.5610379 L29.1300564,86.0672963 C29.1246307,85.8204255 29.3335214,85.6088219 29.5288477,85.4487628 L29.8788074,85.2398722 C29.9412033,85.2208821 30.0008864,85.2127435 30.0578566,85.2127435 C30.4674993,85.2127435 30.7604889,85.6359506 30.939538,85.972346 L30.8147462,86.6451367 L30.1311039,86.7129584" id="Fill-325" fill="#7D7D7D" fill-rule="evenodd"/><path d="M24.7514907,73.1947473 C24.6836691,73.1947473 24.6022831,73.1784701 24.5046199,73.1404899 C23.7829976,72.855639 23.7287403,72.0689079 24.1465216,72.0689079 C24.2713135,72.0689079 24.442224,72.1421553 24.6484018,72.3212044 C25.0743218,72.6955799 25.1285791,73.1947473 24.7514907,73.1947473" id="Fill-326" fill="#7D7D7D" fill-rule="evenodd"/><path d="M20.6360731,85.9777717 L20.313242,85.9479302 C19.4803922,85.6359506 18.7072254,85.1150803 18.3572656,84.2632404 C18.107682,83.6392812 18.2026323,83.0180349 18.7696213,83.0180349 C18.8835616,83.0180349 19.0192049,83.0424507 19.1738383,83.0994209 C19.7733817,83.3218759 20.2942519,83.8047661 20.617083,84.3581907 C20.798845,84.6837346 21.2546065,85.7444652 20.6360731,85.9777717" id="Fill-327" fill="#7D7D7D" fill-rule="evenodd"/><path d="M24.3526994,84.0652012 C23.7612947,84.0652012 23.2512759,83.4927865 23.066801,82.9203718 C22.8823261,82.347957 23.0233951,81.7755423 23.7368789,81.7755423 C23.7450175,81.7755423 23.7558689,81.7782552 23.7667204,81.7782552 C24.7921837,81.7782552 25.6141821,83.3924104 24.9142627,83.8834392 C24.7243621,84.0109439 24.5344615,84.0652012 24.3526994,84.0652012" id="Fill-328" fill="#7D7D7D" fill-rule="evenodd"/><path d="M18.9269675,72.7769659 C18.3382756,72.7769659 17.7902767,72.0960365 18.1158206,71.7460768 C18.2840183,71.5643148 18.5281762,71.4856417 18.7723341,71.4856417 C19.4315606,71.4856417 20.1043513,72.0363535 19.4044319,72.6006296 C19.2552243,72.7254214 19.0897395,72.7769659 18.9269675,72.7769659" id="Fill-329" fill="#7D7D7D" fill-rule="evenodd"/><path d="M27.963524,82.4998775 C27.4426538,82.4998775 26.891942,82.0522546 27.0574268,81.6914435 C27.214773,81.3604738 27.5918614,81.2085533 27.9499597,81.2085533 C28.4979586,81.2085533 28.997126,81.5639388 28.5820575,82.1743336 C28.4274241,82.4076401 28.1995434,82.4998775 27.963524,82.4998775" id="Fill-330" fill="#7D7D7D" fill-rule="evenodd"/><path d="M13.6016116,79.230874 C13.3981467,79.230874 13.2055332,79.130498 13.0481869,79.0002804 L12.5029009,78.5173903 C12.1502283,78.2623809 11.2359925,77.4946398 11.6402095,76.9629181 C11.7839914,76.7703046 11.9874564,76.6997701 12.2099114,76.6997701 C12.7063658,76.6997701 13.3086221,77.0578684 13.6016116,77.2776105 C13.8728982,77.4892141 14.1957293,77.7984808 14.2554123,78.1647177 C14.3069568,78.5173903 14.1170561,79.1440623 13.715552,79.2200226 C13.6775719,79.2281612 13.6395917,79.230874 13.6016116,79.230874" id="Fill-331" fill="#7D7D7D" fill-rule="evenodd"/><path d="M21.1108246,78.8971915 C20.3485093,78.8971915 19.5590653,78.077906 19.8954607,77.592303 C20.1152028,77.2830363 20.495004,77.1501058 20.8775181,77.1501058 C21.7157937,77.1501058 22.5730594,77.7849165 21.8215955,78.5797862 C21.6154177,78.8049541 21.3631211,78.8971915 21.1108246,78.8971915" id="Fill-332" fill="#7D7D7D" fill-rule="evenodd"/><path d="M22.9175933,69.0115079 L22.5133763,68.7727757 C22.5784851,68.7022412 22.6734354,68.6723997 22.76296,68.6723997 C22.9664249,68.6723997 23.1481869,68.8297459 22.9175933,69.0115079" id="Fill-333" fill="#7D7D7D" fill-rule="evenodd"/><path d="M28.8913242,77.4593726 C28.8180768,77.4593726 28.7258394,77.4376696 28.6146119,77.3942638 C28.1018802,77.1853731 28.3921569,76.5152952 28.7285522,76.5152952 C28.8587698,76.5152952 28.9944131,76.6156712 29.0947891,76.884245 C29.1951652,77.1528187 29.178888,77.4593726 28.8913242,77.4593726" id="Fill-334" fill="#7D7D7D" fill-rule="evenodd"/><path d="M31.4956755,66.5645028 C31.4495568,66.5645028 31.3925866,66.5509385 31.3274778,66.5183841 C31.0290626,66.3773151 31.2786463,65.9378308 31.4875369,65.9378308 C31.5716358,65.9378308 31.647596,66.0056524 31.6828633,66.1874145 C31.7181305,66.3637507 31.6774376,66.5645028 31.4956755,66.5645028" id="Fill-335" fill="#7D7D7D" fill-rule="evenodd"/><path d="M24.6294118,76.4556122 C24.5697287,76.4556122 24.5046199,76.4528993 24.4340854,76.4447607 C23.6392157,76.3389589 23.915928,75.3948816 24.423234,75.3948816 C24.5805802,75.3948816 24.7623422,75.4844061 24.9386785,75.7204255 C25.1746978,76.0351179 25.2208165,76.4556122 24.6294118,76.4556122" id="Fill-336" fill="#7D7D7D" fill-rule="evenodd"/><polyline id="Fill-337" fill="#7D7D7D" fill-rule="evenodd" points="33.1152565 74.6515563 33.1315337 74.2744679 33.2454741 74.0981316 33.3756916 74.2012205 33.4408004 74.4372399 33.4028203 74.6081504 33.1152565 74.6515563"/><polyline id="Fill-338" fill="#7D7D7D" fill-rule="evenodd" points="25.5246575 68.3549944 25.1611335 68.0701434 25.1991136 67.8748171 25.4514102 67.7798668 25.6847166 67.8341241 25.798657 68.0674306 25.7308353 68.1759452 25.5246575 68.3549944"/><path d="M16.7132689,75.8180886 L16.0540424,75.6444652 L15.557588,75.2917927 L15.3595488,74.6895364 L15.9563793,74.2581907 L16.3551706,74.1849433 C16.8760408,74.2283492 17.0225356,74.8116154 17.0713672,75.2402482 C17.1012087,75.4925447 16.9872683,75.7556927 16.7132689,75.8180886" id="Fill-339" fill="#7D7D7D" fill-rule="evenodd"/><path d="M16.4284179,61.3612259 C16.3388934,61.3612259 16.2303787,61.3096815 16.1055869,61.1930282 C15.6091324,60.7101381 15.7827558,60.064476 16.1001612,60.064476 C16.2412302,60.064476 16.4094279,60.1892678 16.5613484,60.5066731 C16.7756648,60.9434445 16.6861402,61.3612259 16.4284179,61.3612259" id="Fill-340" fill="#7D7D7D" fill-rule="evenodd"/><path d="M7.54920763,71.4693645 C7.5437819,71.4693645 7.53835616,71.4693645 7.53293043,71.4693645 L7.24536664,71.317444 C6.59699167,70.7070492 6.08154714,69.9284566 6.08968574,69.0060822 C6.09782434,68.4336675 6.33655654,67.9643417 6.72449637,67.9643417 C6.88726833,67.9643417 7.07988182,68.0511534 7.29419823,68.2491926 C7.75809831,68.685964 8.0538007,69.3316261 8.13518668,69.9664368 C8.17859253,70.3326737 8.19215686,71.4693645 7.54920763,71.4693645" id="Fill-341" fill="#7D7D7D" fill-rule="evenodd"/><path d="M12.0444265,71.176375 C11.3689229,71.176375 10.9864088,70.4845942 10.9402901,69.8389321 C10.8887456,69.2556659 11.1573194,68.6995283 11.6646253,68.6995283 C11.7758528,68.6995283 11.8979318,68.726657 12.0308622,68.7863401 C12.9749396,69.1688542 13.1105829,70.9512071 12.2804459,71.1492463 C12.1990599,71.1682364 12.1203868,71.176375 12.0444265,71.176375" id="Fill-342" fill="#7D7D7D" fill-rule="evenodd"/><path d="M11.4340317,58.7595874 C10.7015579,58.7595874 10.3027666,57.6635896 10.8154983,57.4384217 C10.9131614,57.3950159 11.0189632,57.3760258 11.1220521,57.3760258 C11.9006446,57.3760258 12.703653,58.4367564 11.6564867,58.727033 C11.5778136,58.748736 11.5045662,58.7595874 11.4340317,58.7595874" id="Fill-343" fill="#7D7D7D" fill-rule="evenodd"/><path d="M15.8885576,71.0325931 C15.2808756,71.0325931 14.7437282,70.2350105 15.0855493,69.9148923 C15.2456084,69.7683975 15.4517862,69.7087145 15.6606769,69.7087145 C16.347032,69.7087145 17.07408,70.3706538 16.2982004,70.8969498 C16.1652699,70.9919001 16.0242009,71.0325931 15.8885576,71.0325931" id="Fill-344" fill="#7D7D7D" fill-rule="evenodd"/><path d="M3.89769003,62.5467483 C3.86513564,62.5467483 3.83258125,62.5440355 3.80002686,62.5386097 L3.27644373,62.0692839 L2.96988987,61.4100575 C2.74743486,61.035682 2.21300027,59.9640999 2.79355359,59.638556 C2.89935536,59.578873 3.00515713,59.5544572 3.1109589,59.5544572 C3.68608649,59.5544572 4.24764974,60.3194854 4.47010475,60.7074252 C4.63558958,61.0112662 4.809213,61.4236218 4.71697556,61.7817201 C4.63016385,62.0991254 4.26663981,62.5467483 3.89769003,62.5467483" id="Fill-345" fill="#7D7D7D" fill-rule="evenodd"/><path d="M11.0922106,65.2107827 C10.7042707,65.2107827 10.354311,64.9666248 10.1345689,64.6519323 C9.8551437,64.2205866 9.79274778,63.6834392 10.1182917,63.4772614 C10.2810637,63.3741725 10.4628257,63.3307666 10.6445877,63.3307666 C11.0515176,63.3307666 11.4720118,63.5477959 11.7378727,63.8299339 C12.1312382,64.2368638 12.2424658,64.7930014 11.4937147,65.1212581 C11.3580714,65.1836541 11.2224281,65.2107827 11.0922106,65.2107827" id="Fill-346" fill="#7D7D7D" fill-rule="evenodd"/><path d="M16.224953,56.8497298 C15.9835079,56.8497298 15.8695676,56.5377502 16.0350524,56.4645028 C16.0730325,56.4482256 16.1137255,56.440087 16.1571313,56.440087 C16.4175665,56.440087 16.6590115,56.743928 16.3090518,56.8388783 C16.2792103,56.8470169 16.2520817,56.8497298 16.224953,56.8497298" id="Fill-347" fill="#7D7D7D" fill-rule="evenodd"/><path d="M18.5010475,66.7272748 C18.411523,66.7272748 18.3002955,66.6757303 18.167365,66.5482256 C17.8228311,66.2145431 18.2134837,65.7750588 18.5146119,65.7750588 C18.6800967,65.7750588 18.8211657,65.9052764 18.8021757,66.2552361 C18.7886113,66.4939683 18.6909482,66.7272748 18.5010475,66.7272748" id="Fill-348" fill="#7D7D7D" fill-rule="evenodd"/><path d="M23.9349181,58.363509 C23.875235,58.363509 23.8047005,58.3309546 23.7287403,58.2495686 C23.5388396,58.0379651 23.8399678,57.7748171 24.0434327,57.7748171 C24.1573731,57.7748171 24.2387591,57.8562031 24.1845017,58.0759452 C24.1519474,58.22244 24.0624228,58.363509 23.9349181,58.363509" id="Fill-349" fill="#7D7D7D" fill-rule="evenodd"/><path d="M15.1777867,64.3128241 C15.0638464,64.3128241 14.9146387,64.2694182 14.7301638,64.1636164 C14.119769,63.8109439 14.5484018,63.1761332 14.9797475,63.1761332 C15.1804996,63.1761332 15.3839645,63.3172023 15.476202,63.6970035 C15.5467365,63.9954188 15.4843406,64.3128241 15.1777867,64.3128241" id="Fill-350" fill="#7D7D7D" fill-rule="evenodd"/><polyline id="Fill-351" fill="#7D7D7D" fill-rule="evenodd" points="23.5686812 65.6421284 23.2973946 65.5878711 23.4574537 65.2569014 23.6283642 65.1321096 23.7043245 65.2677529 23.6690572 65.5010594 23.5686812 65.6421284"/><path d="M18.9323932,57.2539468 C18.6855224,57.2539468 18.7099382,56.9989374 18.7370669,56.8578684 L18.8482944,56.6950964 L19.1168681,56.7059479 L19.3094816,56.8470169 L19.3203331,57.0993135 L19.2172442,57.1725608 L18.956809,57.2539468 C18.9486704,57.2539468 18.9405318,57.2539468 18.9323932,57.2539468" id="Fill-352" fill="#7D7D7D" fill-rule="evenodd"/><path d="M7.99140478,60.6151878 C7.96156326,60.6151878 7.93172173,60.6124749 7.9018802,60.6070492 L7.37015847,60.1865549 L7.05546602,59.6683975 L7.11514907,59.0390126 C7.24265377,58.9060822 7.44069299,58.8708149 7.63873221,58.8708149 C7.70384099,58.8708149 7.76894977,58.8735278 7.83134569,58.8789535 L8.22742412,58.971191 C8.68861133,59.2180618 8.59094816,59.8067537 8.46344346,60.2191093 C8.39833468,60.4361386 8.22471125,60.6151878 7.99140478,60.6151878" id="Fill-353" fill="#7D7D7D" fill-rule="evenodd"/><path d="M13.5392157,47.3845404 C13.430701,47.3845404 13.3167607,47.2950159 13.2272361,47.088838 C12.9993554,46.5327005 13.3113349,46.0742262 13.5880473,46.0742262 C13.756245,46.0742262 13.9135912,46.2451367 13.9244427,46.665631 C13.938007,47.0779866 13.7453935,47.3845404 13.5392157,47.3845404" id="Fill-354" fill="#7D7D7D" fill-rule="evenodd"/><path d="M2.36763363,51.3426119 C2.30252485,51.3426119 2.2347032,51.3290476 2.16688155,51.2937803 L1.96612947,51.0414838 C1.61616976,50.2194854 1.45611066,49.2971109 1.8359119,48.4561225 C2.03666398,48.0247768 2.35135643,47.7209358 2.65519742,47.7209358 C2.8722267,47.7209358 3.08383024,47.878282 3.2466022,48.2526575 C3.49076014,48.8386366 3.50432447,49.5466946 3.32256245,50.1598023 C3.22761214,50.4744948 2.86137524,51.3426119 2.36763363,51.3426119" id="Fill-355" fill="#7D7D7D" fill-rule="evenodd"/><path d="M5.81297341,54.5763481 C5.77770615,54.5763481 5.74243889,54.5736353 5.70717164,54.5682095 C4.87974752,54.4054376 4.76309428,53.5074789 5.00453935,52.8319753 C5.15917271,52.3789267 5.50099382,52.028967 5.87536933,52.028967 C6.05713135,52.028967 6.24703196,52.110353 6.42608112,52.3056793 C7.10972334,53.000173 6.59427881,54.5763481 5.81297341,54.5763481" id="Fill-356" fill="#7D7D7D" fill-rule="evenodd"/><path d="M11.1491808,41.3050078 C11.0922106,41.3050078 11.0271018,41.2995821 10.9565673,41.2887306 C10.0694601,41.1558002 10.1210046,39.8075058 10.7205479,39.8075058 C10.7232608,39.8075058 10.7286865,39.8075058 10.7341123,39.8075058 C11.5886651,39.8400602 12.1095353,41.3050078 11.1491808,41.3050078" id="Fill-357" fill="#7D7D7D" fill-rule="evenodd"/><path d="M9.3369863,55.9599098 C8.56924523,55.9599098 8.26540424,54.7391201 8.77542305,54.5573581 C8.85409616,54.5302294 8.93548214,54.5166651 9.01686812,54.5166651 C9.81987644,54.5166651 10.5821918,55.7401676 9.49161966,55.9436326 C9.43736234,55.954484 9.38581789,55.9599098 9.3369863,55.9599098" id="Fill-358" fill="#7D7D7D" fill-rule="evenodd"/><path d="M3.26830513,44.1914972 C3.17878055,44.1914972 3.09468171,44.1697943 3.02414719,44.1155369 L2.80711792,43.6109439 L2.80711792,43.0466678 C2.77185066,42.7075595 2.74743486,41.7716207 3.26830513,41.7363535 C3.28186946,41.7336406 3.29543379,41.7336406 3.30899812,41.7336406 C3.87598711,41.7336406 4.05774913,42.6424507 4.09572925,43.041242 C4.11471931,43.3098158 4.10115498,43.6570626 3.91939296,43.8795176 C3.78646253,44.034151 3.5097502,44.1914972 3.26830513,44.1914972" id="Fill-359" fill="#7D7D7D" fill-rule="evenodd"/><path d="M7.4081386,48.7626763 C6.81944668,48.7626763 6.46134837,48.2879248 6.3636852,47.7887575 C6.28501209,47.2895901 6.45049691,46.7795713 6.83029815,46.725314 C6.873704,46.7198883 6.91710986,46.7171754 6.96051571,46.7171754 C7.51665324,46.7171754 7.99411765,47.2082041 8.16231534,47.6938072 C8.35492882,48.2201032 8.23284985,48.7626763 7.41899006,48.7626763 L7.4162772,48.7626763 C7.41356433,48.7626763 7.41085146,48.7626763 7.4081386,48.7626763" id="Fill-360" fill="#7D7D7D" fill-rule="evenodd"/><path d="M16.5613484,40.0272479 C16.5396454,40.0272479 16.5125168,40.0245351 16.4853881,40.0218222 C16.1815471,39.9702777 16.1923986,39.5877636 16.3850121,39.5877636 L16.387725,39.5877636 C16.6834273,39.5986151 16.873328,40.0272479 16.5613484,40.0272479" id="Fill-361" fill="#7D7D7D" fill-rule="evenodd"/><path d="M13.2652162,53.0218759 C13.1539887,53.0218759 13.0400483,52.9350642 12.945098,52.7098963 C12.7931775,52.3463723 13.1349987,52.1157787 13.4144239,52.1157787 C13.6558689,52.1157787 13.8511953,52.2866892 13.6423046,52.696332 C13.55278,52.8726683 13.411711,53.0218759 13.2652162,53.0218759" id="Fill-362" fill="#7D7D7D" fill-rule="evenodd"/><path d="M18.5607306,49.2998238 C18.4793446,49.2998238 18.4006715,49.2482794 18.3518399,49.1072103 C18.2813054,48.9037454 18.5091861,48.7870921 18.6963739,48.7870921 C18.8808488,48.7870921 19.0273435,48.8956068 18.8374429,49.1316261 C18.7641955,49.2238636 18.6583938,49.2998238 18.5607306,49.2998238" id="Fill-363" fill="#7D7D7D" fill-rule="evenodd"/><path d="M8.08092936,38.7196465 C7.99954338,38.7196465 7.92358313,38.6653892 7.87203868,38.5243202 C7.80150416,38.3208552 8.0293849,38.2069149 8.21928552,38.2069149 C8.40104754,38.2069149 8.5475423,38.3127166 8.35764169,38.5514488 C8.28710717,38.6436863 8.1813054,38.7196465 8.08092936,38.7196465" id="Fill-364" fill="#7D7D7D" fill-rule="evenodd"/><path d="M11.2468439,49.5331303 C11.1112006,49.5331303 10.9484287,49.4354671 10.7612409,49.1913092 C10.4112812,48.7192705 10.8182111,48.3638851 11.1898738,48.3638851 C11.4665861,48.3638851 11.7243084,48.5646371 11.6320709,49.0665173 C11.5859522,49.3133881 11.4503089,49.5331303 11.2468439,49.5331303" id="Fill-365" fill="#7D7D7D" fill-rule="evenodd"/><polyline id="Fill-366" fill="#7D7D7D" fill-rule="evenodd" points="21.365834 52.2459963 21.1352404 52.0913629 21.4173785 51.8499178 21.6235563 51.8037991 21.6371206 51.9584325 21.5123288 52.1591845 21.365834 52.2459963"/><path d="M12.2478915,35.4126629 L11.9766049,35.3773957 C11.7243084,35.2824454 11.8599517,35.0654161 11.9467634,34.9569014 L12.1122482,34.864664 L12.3536933,34.9813172 L12.4703465,35.1739307 L12.3726833,35.39096 L12.2478915,35.4126629" id="Fill-367" fill="#7D7D7D" fill-rule="evenodd"/><path d="M6.00016116,43.2392812 L5.69360731,42.6424507 L5.62578566,42.0456202 L5.94319098,41.5084727 L6.65938759,41.6685318 L6.97950577,41.9154026 C7.29691109,42.3277583 6.96051571,42.8106484 6.67295192,43.1253409 L6.00016116,43.2392812" id="Fill-368" fill="#7D7D7D" fill-rule="evenodd"/></g></g></svg>