<svg width="100" height="100" xmlns="http://www.w3.org/2000/svg">
    <path fill="#FFF" d="M99.15 27.926c-.242-.342-.587.043-3.517-7.05-.567-1.372-1.103-2.667-1.558-3.615-.323-.672-1.995-3.181-3.994-4.297l-.764-10.5-3.534 1.26.482 7.43-1.395-.388L83.195 0c-22.57 11.028-26.734 34.89-27.407 36.31-1.214.34-23.353.377-34.589 18.275-6.824 10.87-7.322 25.282-1.478 40.708C12.47 92.515 7.77 88.815 5.44 84.03c-4.346-8.928.29-20.471 4.381-30.655 3.495-8.703 6.514-16.218 3.953-21.526-1.127-2.332-3.26-4.013-6.34-4.995-.969-.308-2.005.207-2.32 1.151-.315.944.212 1.959 1.179 2.267 2.108.673 3.466 1.69 4.152 3.111 1.884 3.905-.997 11.08-4.049 18.677C2.034 62.924-2.912 75.237 2.12 85.573c2.6 5.342 7.568 9.584 15.02 12.698A22.387 22.387 0 0 0 25.815 100h36.498v-2.918c0-1.818-1.389-3.35-3.236-3.57l-2.681-.318c4.335-1.701 7.457-5.658 7.952-10.383.651-6.225-4.885-11.496-8.265-14.032a1.768 1.768 0 0 1-.09-2.54 1.87 1.87 0 0 1 2.6-.088l4.288 3.91c6.455 5.884 5.15 16.17 11.766 29.939h8.648v-1.278c0-1.715-1.24-3.192-2.962-3.527l-3.163-.794-.842-17.685c.537-1.356-1.942 4.914 5.246-13.264a27.269 27.269 0 0 0 1.62-12.753c-.544-4.991-.294-10.397 1.603-13.03-2.986-1.037-6.451-1.688-8.77-2.177 1.122-.01 8.744-.207 11.894.645 1.725.467 3 .677 4.132.677 1.56 0 2.818-.417 3.956-1.31.52-.432 1.038-.752 1.496-1.034 2.165-1.337 2.277-3.116 2.378-3.77.25-1.608.144-1.529-.733-2.774zm-11.39-5.034c-.73-.184-1.075-1.005-.683-1.638.556-.9 1.847-1.022 2.57-.24l2.841 3.07-4.728-1.192z"/>
</svg>
