<svg width="100" height="90" xmlns="http://www.w3.org/2000/svg"><g fill="none" fill-rule="evenodd"><path d="M64.1 23.117S95.79 7.225 98.92 9.085c3.129 1.862-7.55 35.456-16.631 44.381L64.1 23.117" fill="#DCC1B7"/><path d="M98.668 8.987C94.386 7.928 64.1 23.117 64.1 23.117l18.189 30.349c9.082-8.925 19.76-42.52 16.63-44.38a.94.94 0 0 0-.251-.099zm-2.176 3.22c-.312 2.884-1.67 8.957-4.77 17.394-2.877 7.828-6.164 14.59-9.06 18.775L68.27 24.362a487.22 487.22 0 0 1 12.08-5.712c9.511-4.322 14.037-5.885 16.142-6.443z" fill="#7C8186"/><path d="M30.817 19.18S4.32-1.113 1.114.047c-3.207 1.16.863 34.045 7.706 43.892l21.997-24.76" fill="#DCC1B7"/><path d="M1.364.002a.864.864 0 0 0-.25.046c-3.207 1.16.863 34.045 7.706 43.892l21.997-24.76S5.494-.215 1.364.001zm1.453 3.356c1.844.889 5.75 3.135 13.78 8.812a461.94 461.94 0 0 1 10.16 7.417L9.35 39.178c-1.953-4.374-3.82-11.196-5.127-18.928C2.816 11.918 2.607 6.074 2.817 3.358z" fill="#7C8186"/><path d="M23.62 18.45C13.49 23.548-.918 53.045.809 59.012c1.465 5.061 23.87 28.485 33.68 29.903 17.98 2.6 49.874-19.706 50.795-23.475.921-3.768 2.31-31.346-17.062-42.96-2.428-1.455-36.713-7.999-44.6-4.03" fill="#7C8186"/><path d="M73.058 51.82c1.218 5.564-2.23 11.077-7.704 12.315-5.473 1.237-10.897-2.268-12.114-7.831-1.218-5.563 2.23-11.077 7.704-12.314 5.473-1.24 10.897 2.268 12.114 7.83" fill="#B9DED7"/><path d="M69.65 52.297c.8 3.652-1.465 7.272-5.058 8.085-3.594.812-7.155-1.49-7.955-5.142-.8-3.652 1.465-7.272 5.059-8.086 3.594-.812 7.154 1.49 7.954 5.143" fill="#3C3126"/><path d="M27.461 44.916c1.22 5.563-2.23 11.076-7.704 12.314C14.284 58.47 8.86 54.962 7.643 49.4c-1.218-5.564 2.231-11.077 7.704-12.315 5.473-1.238 10.897 2.268 12.114 7.831" fill="#B9DED7"/><path d="M24.053 45.392c.8 3.653-1.464 7.274-5.058 8.086-3.593.813-7.154-1.489-7.954-5.142-.8-3.652 1.465-7.272 5.058-8.085 3.594-.813 7.155 1.49 7.954 5.141" fill="#3C3126"/><path d="M40.204 65.71c-.102.984-1.65 2.132-3.372 3.217-1.056.665-1.983 1.668-3.257 1.531-1.407-.151-2.068-1.279-3.004-2.287-1.293-1.391-2.6-2.842-2.503-3.762.164-1.586 2.923-1.693 6.274-1.333 3.35.359 6.027 1.048 5.862 2.634" fill="#515558"/><path fill="#515558" d="M35.382 81.73l-3.098-5.602.687-7.323.938.09-.658 7.025 2.954 5.341-.823.47"/><path fill="#515558" d="M29.015 79.947l-.617-.727 4.062-3.559.616.726-4.061 3.56"/></g></svg>