<svg height="170" viewBox="0 0 200 170" width="200" xmlns="http://www.w3.org/2000/svg"><g fill="none" fill-rule="evenodd"><path d="m199.652506 68.2270678c-3.5275-43.3156651-30.049167-69.05266013-68.2075-68.20684732-25.3425.02596059-39.3791668 12.87477832-45.0391668 19.68315272 7.3141667 8.0846305 12.67 17.1373399 13.1591667 26.9697044-4.4525-11.4059113-14.6-24.3870443-28.5625-30.2055665-.8466667-7.12492609-1.505-16.46571426-6.8033333-15.80330047-4.8025.59960591-10.3033334 7.93221675-12.1608334 11.71911327-5.5066666-.0912808-11.54.74867-17.9408333 3.0800986-8.0816667 2.9452709-14.3591667 7.2605911-19.1325 12.5431527-4.33-.4982759-12.95750001-1.1556651-14.49000001 1.29133-1.5575 2.4863547.8675 10.5157143 5.05416667 15.0353695-5.89083334 17.2127093-3.58333333 38.4610345 1.99083333 57.0320693 4.95916671 16.524335 16.11166671 34.489064 33.68916671 47.809359-1.5416667-3.656256-3.0525-8.919556-2.1475-14.885468 1.9458333-12.813645 12.3733333-20.621921 28.3683333-18.803005 5.2291667.594582 11.955 3.338867 18.7858333 6.217143 8.6391667 3.640345 18.2083338 8.063695 27.6783338 8.817389 16.331666 1.302217 33.221666-1.72931 41.858333-8.138226 1.509167-1.120493 2.5675-1.725123 2.909167-1.341577.341666.384385-.191667 1.341577-1.631667 2.577636-8.906667 7.651675-26.006667 11.652118-43.400833 10.26867-10.0075-.798079-20.0625004-5.035517-28.9341671-8.773843-6.5975-2.779458-12.8291667-5.405665-17.5733333-5.913152-13.1141667-1.400197-22.8108334 4.383152-24.3583334 15.926404-2.735 20.399162 23.5416667 28.054187 30.8891667 30.139409 11.0641667 3.138719 23.4891667 4.65867 37.2983331 3.984532 60.253334-2.945271 92.016667-60.32069 88.701667-101.0235472" fill="#ff5058"/><g fill="#7e002f"><path d="m72.8683392 37.0919446c2.3033334 2.5692611 2.4733334 6.18867.38 8.0829557-2.0933333 1.8951231-5.6566666 1.3474384-7.96-1.2226601-2.3033333-2.5692611-2.4733333-6.1878325-.3791666-8.0821182 2.0925-1.8951232 5.6566666-1.3474385 7.9591666 1.2218226"/><path d="m59.5166726 58.5487919c-.2333334 1.155665-.7841667 2.5700985-2.425 3.0306897-2.025.5686207-3.2741667-.6490148-4.035-1.4563055-.7608334-.808128-1.3733334-1.4898029-2.1641667-1.081133-.7908333.4069951-.5966667 1.3047291-.3875 2.3967488s.57 2.9653695-1.1758333 4.1428079c-1.32.890197-2.7941667.6950739-3.8641667.2118719-1.1925-.5384729-2.0375.1473892-1.6325 1.0308867.36.7880296 1.5766667 2.0257636 3.2708333 2.1823645 1.5475.1440395 3.0908334-.0954679 4.2575-1.1330541 1.4591667-1.2963547 1.8558334-2.591872 2.0441667-3.9108375 1.1766667.6146798 2.5633333.985665 4.3491667.5292611 1.375-.3517241 2.6175-1.3842857 3.4041666-2.7308867.8608334-1.4747291.57-3.189803.1433334-3.944335-.4775-.8449753-1.525-.5552216-1.785.7319212"/><path d="m30.7283392 61.7067722c-.3525 3.440197-2.91 5.9935468-5.7116666 5.7037931-2.8025-.2905911-4.7883334-3.3145813-4.4358334-6.7539409.3533334-3.440197 2.91-5.9935468 5.7125-5.7037931 2.8025.2905912 4.7883334 3.3145813 4.435 6.7539409"/></g></g></svg>